PSF_ID_stride5.mot
nRows=13
nColumns=38

name PSF_ID_stride5.mot
datacolumns 38
datarows 13
range 2.9150000000 2.9750000000
endheader
time	pelvis_tilt_moment	pelvis_list_moment	pelvis_rotation_moment	pelvis_tx_force	pelvis_ty_force	pelvis_tz_force	hip_flexion_r_moment	hip_adduction_r_moment	hip_rotation_r_moment	knee_angle_r_moment	ankle_angle_r_moment	subtalar_angle_r_moment	mtp_angle_r_moment	hip_flexion_l_moment	hip_adduction_l_moment	hip_rotation_l_moment	knee_angle_l_moment	ankle_angle_l_moment	subtalar_angle_l_moment	mtp_angle_l_moment	lumbar_extension_moment	lumbar_bending_moment	lumbar_rotation_moment	arm_flex_r_moment	arm_add_r_moment	arm_rot_r_moment	elbow_flex_r_moment	pro_sup_r_moment	wrist_flex_r_moment	wrist_dev_r_moment	arm_flex_l_moment	arm_add_l_moment	arm_rot_l_moment	elbow_flex_l_moment	pro_sup_l_moment	wrist_flex_l_moment	wrist_dev_l_moment
        2.9150000000	      -11.6978442605	      -57.8044646723	      -19.9954020191	       56.1570146991	       16.5477000635	       94.4005426585	     -109.1951811956	       -5.6186683558	       -0.9773937155	      -62.7345083942	       -1.8877934530	       -0.1062075292	       -0.0209536483	       64.6071876226	      -29.5391538756	       14.3172391768	       25.2810987226	        4.8709163930	       -1.2527285274	        0.2576024001	       -8.6633503075	      -10.2699879974	        2.2556920252	       -0.4812018745	       -0.2558461542	        0.0627833960	       -0.3207343352	        0.0178000685	        0.0116933540	        0.0442716653	       -1.6007927133	        0.6754283059	        0.3566134570	       -0.7017130193	        0.0125973015	        0.0080002619	        0.0680941478	
        2.9200000000	       -0.4839571868	      -32.9696681196	       -7.9129668533	       17.0059640922	      185.9218392998	       93.8745980254	      -68.6427341253	        0.1823428326	        1.7549547643	      -41.6922307803	        8.0362623615	        2.0542044925	        0.0582172063	       55.9892298418	      -21.8298866249	       13.1821545735	       24.5919322765	        5.0413967677	       -1.2365222832	        0.2852667591	       -3.0148924072	      -17.7201942136	        4.1957202850	       -1.4965040798	        0.3354106826	        0.5871601459	       -0.0394920729	        0.0270718381	        0.0666960437	        0.0383395318	       -3.2075264363	        0.2053114155	        0.2045700433	       -0.4793180578	        0.0016462872	       -0.0016177820	        0.0550092725	
        2.9250000000	       18.4754282841	        6.8830309397	        3.8251357854	      -25.2440868954	      334.0040638019	       88.0235340401	      -27.8904880366	       -0.4064838378	        7.1981818386	      -13.6480696153	       16.6066555685	        6.5405948506	        0.1442193347	       50.6661857587	      -15.0466556456	       11.4548626265	       23.2320144937	        5.1407637479	       -1.1951227870	        0.3046744869	        9.0460842042	      -26.9916627115	        5.7994527854	       -2.5384426680	        1.1092104234	        1.1787733218	        0.5550417096	        0.0297945145	        0.1341138822	        0.0175651824	       -4.7584859803	       -0.2781551266	        0.0576539801	        0.0285412900	       -0.0157342767	       -0.0032069331	        0.0207530556	
        2.9300000000	       44.2547655275	       37.5137028047	       13.1457876439	      -55.9294649492	      418.1188643678	       58.4324049438	       -9.3182437552	      -17.4375583532	       17.1917127300	        4.9340679676	       18.1346807902	       12.9848773068	        0.2288100192	       48.8175436998	       -9.4735824172	        9.3920029810	       21.6077871225	        5.1770657609	       -1.1151917147	        0.3139275756	       25.7068356043	      -35.7917125949	        6.5884524283	       -3.4026861530	        1.8655037019	        1.6900560421	        1.3810228976	        0.0280829112	        0.1971814876	       -0.0364861178	       -5.9325770437	       -0.6282037756	       -0.0224169890	        0.8183748000	       -0.0348601128	        0.0071307057	       -0.0425519891	
        2.9350000000	       67.1959722208	       48.7373449441	       19.7574306209	      -69.2143711973	      446.9530983143	       25.1798723852	      -15.3792889810	      -38.1167346830	       29.0199935919	        9.6885432440	        3.2615843357	       19.5937885036	        0.3000905207	       51.3880133936	       -5.0064671194	        7.2328722624	       20.4248543543	        5.1402736641	       -1.0134236703	        0.3141967608	       40.1392199326	      -41.3886629920	        6.4814802966	       -3.9412866964	        2.3693618562	        1.9843062753	        2.1444382498	        0.0195128051	        0.2381952273	       -0.0928199904	       -6.5331950365	       -0.7450222117	       -0.0029653856	        1.5785492793	       -0.0495458536	        0.0283278921	       -0.1037012557	
        2.9400000000	       82.4044455046	       46.2937095328	       26.1730567197	      -51.2985432758	      367.7521156641	      -11.9140538080	      -37.5084746549	      -59.2015995040	       42.5049831446	       11.1141253960	      -16.2343690855	       27.4802970739	        0.3485569562	       57.0048731968	       -1.3776172151	        5.1264821549	       20.4088763010	        5.0229224495	       -0.8956509960	        0.3035726707	       48.2186085282	      -40.5031540608	        5.3937415068	       -4.0662300167	        2.3388293911	        1.9163319996	        2.6430322097	        0.0077331412	        0.2374053514	       -0.1353903883	       -6.4075774328	       -0.5056380471	        0.1621424857	        2.1100469667	       -0.0533352072	        0.0565095572	       -0.1454053616	
        2.9450000000	       79.9689254844	       32.4891729955	       32.4508566085	      -10.3583967068	      201.8081626249	      -31.9272531882	      -72.9435054474	      -72.3659496639	       55.2051640255	       11.5441108466	      -37.5111926526	       35.5562145521	        0.3587606569	       63.6938396670	        1.7209743118	        3.1895589733	       21.1679363145	        4.8206784347	       -0.7678536018	        0.2831282717	       47.6029078768	      -34.7170600399	        3.6313860529	       -3.9311370693	        1.9412862412	        1.5974868039	        2.6685753510	       -0.0054783948	        0.2114434467	       -0.1514235379	       -5.8730641197	        0.0524834087	        0.4650199210	        2.2482184466	       -0.0478005697	        0.0887076223	       -0.1489256816	
        2.9500000000	       64.3529319193	        6.5185366997	       36.2559842082	       43.2422034537	      -11.9861720082	      -30.0208607615	     -114.0455439099	      -72.8965221495	       58.3567768558	       13.0809786857	      -56.2476376637	       42.1413544192	        0.3509275900	       68.9607376427	        4.3267706877	        1.5667404859	       22.9581516817	        4.5409668700	       -0.6387532458	        0.2556496962	       42.9861820811	      -23.1754238698	        1.7598637572	       -3.5590771063	        1.1091275507	        1.0407446928	        2.5351806193	       -0.0185249577	        0.1559206352	       -0.1510126367	       -4.9681520385	        0.8503105270	        0.8453995215	        2.2071275097	       -0.0336770997	        0.1202260738	       -0.1418192158	
        2.9550000000	       29.3474516836	      -22.3023279229	       37.9997297997	       93.4489593577	     -221.5752994745	       -6.1562763858	     -151.9441544443	      -63.5186013422	       58.5362125680	       19.2523918340	      -71.1554412061	       46.5995253678	        0.3096695639	       72.0239859768	        6.4105654749	        0.2714953632	       25.1013500322	        4.2072265419	       -0.5150841033	        0.2247102335	       34.7627623653	       -9.2334713406	        0.3854948039	       -3.0007878876	        0.1895739013	        0.4506339441	        2.2345306486	       -0.0307296792	        0.0974806017	       -0.1435199607	       -3.9335004342	        1.6959467514	        1.2008371217	        2.0486913029	       -0.0186065403	        0.1464626711	       -0.1219165220	
        2.9600000000	      -10.2948255984	      -42.8838095835	       35.2731145956	      123.1297108914	     -371.8708289489	       25.4993149058	     -175.4885041163	      -46.7672703732	       49.5421654547	       33.0085199118	      -80.7179249066	       47.9002079643	        0.2562567240	       71.8453461627	        7.7105698730	       -0.5947054152	       26.9102637689	        3.8643838702	       -0.4075813456	        0.1956068530	       29.1784986956	        2.9909405985	        0.2734244511	       -2.2620436838	       -0.4295158771	        0.0453845471	        2.2239273540	       -0.0414662697	        0.0626440912	       -0.1529358436	       -2.9341636273	        2.3484865743	        1.3770256061	        2.1284157771	       -0.0137588838	        0.1601218782	       -0.1293945833	
        2.9650000000	      -43.7290172435	      -42.7621784280	       30.4254131865	      118.7639365967	     -396.3477652332	       34.1748781474	     -174.1690482521	      -30.4113968856	       37.2851738548	       54.8868439361	      -87.5229474174	       47.3910891133	        0.1982346866	       70.2603329333	        7.7241746278	       -1.0739314787	       27.6676876254	        3.5554109378	       -0.3210964136	        0.1724741729	       30.0487467585	        8.1959572942	        1.2614143106	       -1.2391122400	       -0.3117705189	        0.0821827725	        2.5626240915	       -0.0505083064	        0.0740344446	       -0.1915187502	       -1.9739223951	        2.3777468345	        1.2609612250	        2.5563148156	       -0.0235276643	        0.1544861278	       -0.1732303992	
        2.9700000000	      -54.3918456402	      -32.5425150812	       29.2483680197	       91.6806348736	     -362.8036226423	       23.0702100824	     -159.9392521212	      -21.6999599033	       31.3515357014	       81.9632646162	      -94.5153740838	       47.2438286459	        0.1450745859	       67.6028419629	        7.1804145617	       -1.3593651236	       27.4906880314	        3.3119351660	       -0.2529773756	        0.1578727913	       35.7400673633	        6.7690052734	        3.9346971181	        0.1430806395	        0.4071417222	        0.4230387114	        3.5123324868	       -0.0576537759	        0.1266303629	       -0.2714564576	       -1.0171077666	        2.0940103292	        0.8293801706	        3.4925252999	       -0.0536767525	        0.1306091553	       -0.2711062848	
        2.9750000000	      -52.7167611943	       -9.4721995129	       30.9987258464	       36.1733101261	     -221.4454060526	      -27.8756143588	     -131.1228473885	      -20.2094599806	       31.4109559721	      108.7452827795	     -103.7716797719	       48.3798966190	        0.1022231040	       65.2654622916	        5.8620912290	       -1.6312484588	       26.1558422206	        3.1401834898	       -0.1957340173	        0.1532674389	       47.9459742460	       -3.3557919781	        7.9157677822	        1.9129555339	        1.9863878718	        1.2351680155	        4.9859933617	       -0.0628609140	        0.2305834620	       -0.3890016769	       -0.0263835768	        1.1270726491	        0.0433963397	        4.8630095261	       -0.1034044060	        0.0842146877	       -0.4155708442	
